<?xml version="1.0" encoding="UTF-8"?><svg id="a" xmlns="http://www.w3.org/2000/svg" viewBox="0 0 224.94 98.55"><defs><style>.b{stroke-width:3px;}.b,.c{fill:none;stroke:#52342e;stroke-miterlimit:10;}.d{fill:#52342e;}</style></defs><path class="d" d="M18.56,30.62c.13,3.39,3.48,4.31,3.65,8.27,.08,1.84-.58,3.06-.21,3.22,.53,.24,3.01-1.94,3.22-4.62,.28-3.56-3.7-4.96-3.87-9.88-.04-1.29,.2-2.26-.11-2.36-.54-.18-2.8,2.5-2.68,5.37Z"/><path class="d" d="M24.26,25.62c1.81,5.94,3.69,6.55,4.19,10.2,.49,3.59-.93,5.98-.32,6.23,.65,.26,2.79-2.35,3.65-5.48,.24-.86,1.36-5.32-.97-9.34-1.69-2.92-3.8-3.21-4.29-6.01-.38-2.16,.56-3.77,.11-3.97-.52-.23-2.28,1.64-2.79,3.97-.33,1.5-.06,2.79,.43,4.4Z"/><path class="d" d="M47.03,51.99c-.17-.2,.74-4.66,.75-5.76,0-.49-.05-.89-.09-1.17h0s-.02-.05-.03-.1c-.02-.06-42.95-.31-44.99-.32,1.41,12.7,4.77,19.11,8.49,21.79,1.5,1.08,2.25,3.65,2.25,3.65H1.27s-.32,3.33,5.58,5.15H44.43s6.6-2.85,6.07-5.53l-12.51,.05s1.04-2.18,3.97-5.37"/><path class="d" d="M47.69,47.14c5.2-1.46,7.53-1.13,9.17,.25s1.32,4.52,.62,5.89c-.6,1.17-5.13,9.17-14.98,10.47s-.41,.41,5.34-4.1,6.56-7.24,6.43-8.62c-.14-1.46,0-2.94-4.65-1.71-3.63,.96-2.46,3.83-3.49,5.34"/><line class="c" x1="0" y1=".5" x2="224.92" y2=".5"/><polyline class="b" points="0 4.4 224.92 4.87 .47 4.87"/><line class="c" x1=".49" y1="92.54" x2="224.93" y2="92.85"/><line class="b" x1="224.93" y1="97.05" x2=".49" y2="96.58"/><g><path class="d" d="M97.32,63.29c.16,.35,.21,.67,.14,.96-.06,.26-.24,.48-.53,.67s-.8,.27-1.54,.24h-.74c-.34,0-.7-.05-1.08-.14-.38-.1-.77-.26-1.15-.48s-.7-.58-.96-1.06c-.58-1.02-1.16-2.22-1.75-3.6-.59-1.38-1.16-2.88-1.7-4.51-.7,.03-1.42,.05-2.16,.05s-1.47-.03-2.21-.1c-.93-.06-1.89-.11-2.88-.14-.99-.03-1.95-.06-2.88-.1-.58,1.02-1.15,1.98-1.73,2.88-.58,.9-1.22,1.74-1.92,2.54s-1.52,1.54-2.45,2.23-2.03,1.34-3.31,1.94c-.77,.35-1.67,.49-2.71,.41-1.04-.08-2.06-.28-3.07-.6-1.01-.32-1.91-.72-2.71-1.2-.8-.48-1.33-.93-1.58-1.34-.19-.32-.28-.6-.26-.84,.02-.24,.1-.43,.24-.58,.14-.14,.31-.25,.5-.31,.19-.06,.38-.08,.58-.05,.32,.03,.77,.09,1.34,.17,.58,.08,1.17,.15,1.78,.22,.61,.06,1.18,.1,1.73,.12,.54,.02,.96,0,1.25-.07,.32-.06,1.02-.48,2.11-1.25,1.09-.77,2.46-2.19,4.13-4.27-.54-.13-1.11-.34-1.7-.65-.59-.3-.87-.71-.84-1.22,0-.45,.07-.81,.22-1.08,.14-.27,.31-.44,.5-.5,.1-.03,.33-.09,.7-.17,.37-.08,.81-.18,1.32-.29,.51-.11,1.03-.22,1.56-.34,.53-.11,1-.22,1.42-.31l.14-.14c1.18-1.92,2.41-4.08,3.67-6.48,1.26-2.4,2.62-5.36,4.06-8.88,.51-.54,1.05-.86,1.61-.96,.56-.1,1.14-.11,1.75-.05,.61,.06,1.14,.14,1.58,.22,.45,.08,.83,.24,1.15,.48,.32,.24,.58,.58,.79,1.03,.21,.45,.36,1.09,.46,1.92,.06,.51,.2,1.24,.41,2.18s.44,1.99,.7,3.14c.26,1.15,.54,2.37,.86,3.65,.32,1.28,.62,2.5,.91,3.65,.74,.22,1.29,.5,1.66,.82,.37,.32,.55,.62,.55,.91,.06,.38-.03,.85-.29,1.39-.26,.54-.51,.94-.77,1.2,.35,1.25,.72,2.4,1.1,3.46,.38,1.06,.72,1.97,1.01,2.74,.35,.9,.69,1.73,1.01,2.5Zm-10.99-13.44c-.22-.86-.44-1.78-.65-2.74-.21-.96-.4-1.83-.58-2.62-.18-.78-.36-1.7-.55-2.76-.35,.77-.72,1.58-1.1,2.45-.35,.74-.76,1.61-1.22,2.62-.46,1.01-.98,2.07-1.56,3.19,1.22-.06,2.26-.11,3.14-.14,.88-.03,1.7-.05,2.47-.05l.05,.05Z"/><path class="d" d="M120.46,59.92c-.22,.58-.52,1.17-.89,1.78-.37,.61-.82,1.16-1.37,1.66-.54,.5-1.21,.9-1.99,1.22-.78,.32-1.69,.48-2.71,.48s-1.94-.19-2.64-.58c-.71-.38-1.28-.83-1.73-1.34-.45-.51-.78-1.03-1.01-1.56-.22-.53-.38-.92-.48-1.18-.1-.26-.18-.56-.26-.91-.08-.35-.15-.7-.22-1.03-.06-.34-.13-.62-.19-.86-.06-.24-.14-.39-.24-.46-.1-.03-.22,.04-.38,.22s-.33,.41-.5,.7-.35,.58-.53,.89c-.18,.3-.31,.54-.41,.7-.1,.16-.23,.41-.41,.74s-.34,.7-.48,1.08c-.14,.38-.28,.74-.41,1.08-.13,.34-.19,.58-.19,.74-.06,.35-.25,.66-.55,.94-.3,.27-.54,.42-.7,.46-.16,.03-.46,.03-.89,0-.43-.03-1.05-.29-1.85-.77-.38-.22-.68-.79-.89-1.7s-.37-1.9-.48-2.98c-.11-1.07-.18-2.1-.22-3.1-.03-.99-.05-1.7-.05-2.11-.06-1.63,.83-2.3,2.69-2.02,.48,.1,.86,.26,1.15,.48,.29,.22,.51,.48,.67,.77,.16,.29,.26,.57,.31,.84,.05,.27,.07,.49,.07,.65,.06,.7,.18,1.06,.34,1.06,.03,0,.14-.1,.31-.31s.39-.46,.65-.77c.26-.3,.54-.64,.86-1.01,.32-.37,.64-.7,.96-.98,.32-.29,.7-.5,1.13-.65,.43-.14,.88-.23,1.34-.26,.46-.03,.91-.02,1.34,.02,.43,.05,.81,.12,1.13,.22,.32,.13,.57,.35,.74,.67,.18,.32,.3,.71,.38,1.18s.13,.98,.14,1.54c.02,.56,.02,1.13,.02,1.7s.02,1.12,.05,1.63c.03,.51,.11,.95,.24,1.32,.13,.37,.33,.67,.6,.89,.27,.22,.63,.34,1.08,.34,.93,0,1.67-.22,2.23-.67,.56-.45,.94-.98,1.13-1.58,.32-.93,.64-1.54,.96-1.85,.32-.3,.83-.38,1.54-.22,.16,.03,.3,.16,.43,.38,.13,.22,.22,.48,.26,.77,.05,.29,.06,.59,.05,.91-.02,.32-.07,.59-.17,.82v.05Z"/><path class="d" d="M144.74,59.83c-.1,.48-.38,1.05-.84,1.71-.46,.66-1.1,1.3-1.92,1.91-.82,.62-1.8,1.12-2.95,1.53-1.15,.41-2.48,.61-3.98,.61s-2.66-.3-3.48-.9c-.82-.6-1.43-1.22-1.85-1.87-.61,.68-1.21,1.21-1.8,1.58-.59,.37-1.16,.65-1.7,.83-.54,.18-1.05,.29-1.51,.34-.46,.05-.87,.07-1.22,.07-.7,0-1.43-.11-2.18-.34-.75-.22-1.44-.58-2.06-1.08-.62-.5-1.14-1.15-1.56-1.97-.42-.82-.62-1.82-.62-3s.22-2.18,.65-3.1c.43-.91,1.03-1.67,1.8-2.28,.77-.61,1.68-1.07,2.74-1.39,1.06-.32,2.21-.48,3.46-.48,.93,0,1.74,.06,2.45,.19,.7,.13,1.33,.3,1.87,.53v-.19c0-3.46,.18-6.16,.55-8.11,.37-1.95,.81-3.4,1.32-4.34,.51-.94,1.03-1.53,1.56-1.75,.53-.22,.94-.34,1.22-.34s.6,.05,.94,.14c.34,.1,.62,.39,.84,.89s.34,1.25,.36,2.28c.02,1.02-.14,2.46-.46,4.31-.26,1.47-.52,2.83-.79,4.07-.27,1.25-.57,2.4-.89,3.45-.22,1.5-.4,2.78-.53,3.83s-.13,1.92,0,2.59c.13,.67,.4,1.17,.82,1.51,.42,.33,1.07,.53,1.97,.6,.77,.06,1.44-.02,2.02-.26,.58-.24,1.06-.52,1.44-.84,.38-.32,.68-.63,.89-.94,.21-.3,.31-.49,.31-.55,.25-.96,.57-1.58,.94-1.87,.37-.29,.9-.35,1.61-.19,.35,.1,.58,.41,.7,.94,.11,.53,.09,1.16-.07,1.9Zm-15.98-2.64c-.48-.22-.98-.4-1.51-.53-.53-.13-1.06-.13-1.61,0-1.41,.29-2.28,.77-2.62,1.44-.34,.67-.34,1.39-.02,2.16,.1,.26,.36,.45,.79,.58,.43,.13,.93,.14,1.49,.05,.56-.1,1.12-.34,1.68-.74,.56-.4,1.03-1,1.42-1.8,.06-.13,.13-.29,.19-.48,.06-.19,.13-.42,.19-.67Z"/><path class="d" d="M166.97,56.95c.29,.06,.5,.31,.62,.74,.13,.43,.15,.95,.07,1.56-.08,.61-.26,1.26-.55,1.94s-.7,1.32-1.25,1.9-1.22,1.06-2.02,1.44-1.76,.56-2.88,.53c-1.06-.03-1.94-.17-2.64-.43-.71-.26-1.28-.56-1.73-.91-.51-.35-.93-.78-1.25-1.3-.61,.51-1.26,.96-1.97,1.34-.61,.35-1.3,.67-2.09,.94-.79,.27-1.61,.41-2.47,.41-.22,0-.7-.06-1.42-.19-.72-.13-1.47-.39-2.26-.79-.78-.4-1.47-.98-2.06-1.75-.59-.77-.89-1.78-.89-3.02s.3-2.36,.91-3.34c.61-.98,1.36-1.79,2.26-2.45s1.86-1.14,2.9-1.46c1.04-.32,1.99-.48,2.86-.48,.54,0,1.05,.04,1.51,.12s.87,.17,1.22,.26c.38,.13,.74,.26,1.06,.38,.03,.03,.08,.03,.14,0,.06,0,.19-.06,.38-.19,.06-.03,.18-.1,.36-.19s.4-.15,.67-.17c.27-.02,.58,0,.91,.07,.34,.06,.71,.22,1.13,.48,.42,.26,.72,.52,.91,.79,.19,.27,.32,.53,.38,.77s.08,.46,.05,.65c-.03,.19-.05,.34-.05,.43s-.05,.3-.14,.6c-.1,.3-.19,.65-.29,1.03s-.18,.8-.24,1.25c-.06,.45-.08,.88-.05,1.3,.06,.83,.22,1.38,.48,1.63,.26,.26,.66,.45,1.2,.58,.26,.06,.57,.07,.94,.02,.37-.05,.74-.17,1.1-.36,.37-.19,.7-.45,.98-.77,.29-.32,.48-.72,.58-1.2,.13-.61,.31-1.07,.55-1.39,.24-.32,.48-.54,.72-.67,.24-.13,.48-.18,.72-.17,.24,.02,.44,.04,.6,.07Zm-12.67,.34c-.06,0-.13-.02-.19-.05-.16-.1-.26-.18-.29-.24-.06-.16-.11-.27-.14-.34-.03-.06-.11-.13-.24-.19-.38-.1-.84-.15-1.37-.17-.53-.02-1.05,.06-1.56,.22-.51,.16-.99,.42-1.44,.79-.45,.37-.77,.91-.96,1.61-.13,.45-.14,.82-.02,1.1,.11,.29,.29,.51,.55,.67,.26,.16,.55,.26,.89,.29s.68,0,1.03-.1c.83-.19,1.5-.48,1.99-.86,.5-.38,.87-.78,1.13-1.2,.32-.48,.53-.99,.62-1.54Z"/><path class="d" d="M187.13,59.92c-.22,.58-.52,1.17-.89,1.78-.37,.61-.82,1.16-1.37,1.66-.54,.5-1.21,.9-1.99,1.22-.78,.32-1.69,.48-2.71,.48s-1.94-.19-2.64-.58c-.71-.38-1.28-.83-1.73-1.34-.45-.51-.78-1.03-1.01-1.56-.22-.53-.38-.92-.48-1.18-.1-.26-.18-.56-.26-.91-.08-.35-.15-.7-.22-1.03-.06-.34-.13-.62-.19-.86-.06-.24-.14-.39-.24-.46-.1-.03-.22,.04-.38,.22s-.33,.41-.5,.7-.35,.58-.53,.89c-.18,.3-.31,.54-.41,.7-.1,.16-.23,.41-.41,.74s-.34,.7-.48,1.08c-.14,.38-.28,.74-.41,1.08-.13,.34-.19,.58-.19,.74-.06,.35-.25,.66-.55,.94-.3,.27-.54,.42-.7,.46-.16,.03-.46,.03-.89,0-.43-.03-1.05-.29-1.85-.77-.38-.22-.68-.79-.89-1.7s-.37-1.9-.48-2.98c-.11-1.07-.18-2.1-.22-3.1-.03-.99-.05-1.7-.05-2.11-.06-1.63,.83-2.3,2.69-2.02,.48,.1,.86,.26,1.15,.48,.29,.22,.51,.48,.67,.77,.16,.29,.26,.57,.31,.84,.05,.27,.07,.49,.07,.65,.06,.7,.18,1.06,.34,1.06,.03,0,.14-.1,.31-.31s.39-.46,.65-.77c.26-.3,.54-.64,.86-1.01,.32-.37,.64-.7,.96-.98,.32-.29,.7-.5,1.13-.65,.43-.14,.88-.23,1.34-.26,.46-.03,.91-.02,1.34,.02,.43,.05,.81,.12,1.13,.22,.32,.13,.57,.35,.74,.67,.18,.32,.3,.71,.38,1.18s.13,.98,.14,1.54c.02,.56,.02,1.13,.02,1.7s.02,1.12,.05,1.63c.03,.51,.11,.95,.24,1.32,.13,.37,.33,.67,.6,.89,.27,.22,.63,.34,1.08,.34,.93,0,1.67-.22,2.23-.67,.56-.45,.94-.98,1.13-1.58,.32-.93,.64-1.54,.96-1.85,.32-.3,.83-.38,1.54-.22,.16,.03,.3,.16,.43,.38,.13,.22,.22,.48,.26,.77,.05,.29,.06,.59,.05,.91-.02,.32-.07,.59-.17,.82v.05Z"/><path class="d" d="M198.21,59.83c-.1,.29-.31,.72-.65,1.3s-.79,1.15-1.37,1.73c-.58,.58-1.28,1.08-2.11,1.51-.83,.43-1.79,.65-2.88,.65-1.38,0-2.51-.26-3.41-.77-.9-.51-1.61-1.18-2.14-1.99-.53-.82-.89-1.73-1.08-2.74-.19-1.01-.29-1.99-.29-2.95,0-.83,.03-1.82,.1-2.95,.06-1.14,.13-2.26,.19-3.38h-2.78c-.86,0-1.44-.03-1.73-.1-.22-.06-.42-.16-.6-.29-.18-.13-.28-.37-.31-.72,0-.16,.05-.38,.14-.67s.22-.5,.38-.62c.19-.19,.5-.38,.94-.58,.43-.19,.92-.3,1.46-.34l2.78-.1c.06-.45,.1-.82,.12-1.1,.02-.29,.04-.48,.07-.58,.03-.22,.06-.51,.07-.86,.02-.35,.04-.72,.07-1.1,.03-.38,.07-.74,.12-1.08,.05-.34,.12-.63,.22-.89,.19-.51,.5-.94,.91-1.27,.42-.34,.9-.52,1.44-.55,.54,0,.95,.16,1.22,.48,.27,.32,.49,.56,.65,.72,.16,.13,.34,.41,.55,.84,.21,.43,.23,1.05,.07,1.85-.06,.29-.14,.74-.22,1.34-.08,.61-.18,1.3-.31,2.06,1.02-.06,1.71-.06,2.06,0,.64,0,1.14,0,1.51-.02,.37-.02,.74,.06,1.13,.22,.35,.16,.53,.34,.53,.53s-.03,.4-.1,.62c-.03,.19-.2,.5-.5,.94-.3,.43-.78,.68-1.42,.74-.35,.03-.86,.1-1.51,.19-.66,.1-1.35,.18-2.09,.24-.1,.86-.18,1.66-.26,2.4-.08,.74-.15,1.33-.22,1.78-.06,.58-.1,1.27-.12,2.09-.02,.82,.05,1.6,.19,2.35,.14,.75,.4,1.39,.77,1.92,.37,.53,.92,.79,1.66,.79s1.33-.11,1.8-.34c.46-.22,.82-.48,1.08-.77,.26-.29,.43-.56,.53-.82,.1-.26,.16-.42,.19-.48,.42-.99,.77-1.62,1.06-1.9,.29-.27,.78-.33,1.49-.17,.35,.1,.62,.42,.79,.98s.12,1.19-.17,1.9l-.05-.05Z"/><path class="d" d="M217.46,59.88c-.26,.61-.72,1.27-1.39,1.99-.67,.72-1.54,1.39-2.62,2.02-1.07,.62-2.35,1.14-3.84,1.56-1.49,.42-3.14,.62-4.97,.62s-3.42-.2-4.7-.6c-1.28-.4-2.31-.95-3.1-1.66-.78-.7-1.31-1.53-1.58-2.47-.27-.94-.33-1.98-.17-3.1,.19-1.31,.68-2.38,1.46-3.22s1.66-1.49,2.62-1.97c.96-.48,1.92-.81,2.88-.98s1.73-.26,2.3-.26,1.22,.07,1.92,.19c.7,.13,1.37,.34,1.99,.62s1.14,.67,1.56,1.15c.42,.48,.62,1.09,.62,1.82s-.16,1.42-.48,2.04c-.32,.62-.75,1.18-1.3,1.68-.54,.5-1.17,.91-1.87,1.25-.7,.34-1.44,.58-2.21,.74-1.12,.26-2.05,.38-2.78,.38,.35,.35,.79,.65,1.32,.89s1.13,.36,1.8,.36c1.47,0,2.78-.16,3.94-.48,1.15-.32,2.12-.7,2.9-1.13,.78-.43,1.4-.87,1.85-1.32s.7-.77,.77-.96c.35-.93,.68-1.54,.98-1.85s.81-.38,1.51-.22c.35,.06,.6,.38,.74,.96,.14,.58,.09,1.22-.17,1.92Zm-12.14-3.46c-.13-.29-.38-.46-.77-.53-.38-.06-.94,0-1.68,.19-.64,.16-1.14,.46-1.49,.89-.35,.43-.58,.92-.67,1.46,.45,.07,.95,.1,1.51,.12,.56,.02,1.14-.1,1.75-.36,.61-.26,1.02-.54,1.25-.86,.22-.32,.26-.62,.1-.91Z"/></g></svg>